<?xml version="1.0" encoding="UTF-8"?>
<svg id="_圖層_2" data-name="圖層 2" xmlns="http://www.w3.org/2000/svg" viewBox="0 0 34.85 83.03">
  <defs>
    <style>
      .cls-1 {
        fill: #fff;
      }
    </style>
  </defs>
  <g id="_紀錄" data-name="紀錄">
    <path class="cls-1" d="M34.82,74.83c.35,4.13-2.71,7.76-6.84,8.11-.68.06-1.36.09-2.05.09-14.3,0-25.93-11.63-25.93-25.92,0-5.75,1.86-11.19,5.2-15.6C1.86,37.1,0,31.67,0,25.93,0,11.63,11.63,0,25.93,0c.69,0,1.37.03,2.05.09,4.13.35,7.19,3.98,6.84,8.11-.35,4.12-3.97,7.18-8.11,6.83-.26-.02-.52-.03-.78-.03-6.03,0-10.93,4.9-10.93,10.93,0,3.77,1.91,7.23,5.11,9.24.1.06.2.13.29.2.15.11.31.22.45.34.13.1.25.21.36.31.36.33.68.7.97,1.1.08.1.15.21.22.32.02.03.04.06.06.09.02.03.03.05.05.08.08.13.15.26.22.39.15.27.27.55.38.83.05.14.1.27.14.41.05.15.09.3.13.45.05.17.08.34.11.52.03.13.05.26.06.39.02.13.03.26.04.4.01.16.02.33.02.49v.06c0,.16,0,.33-.02.49,0,.13-.02.27-.04.4,0,.13-.03.26-.06.39-.07.43-.19.86-.34,1.27-.06.16-.12.31-.19.46-.14.32-.3.63-.49.93-.01.01-.01.02-.02.03-.09.14-.18.28-.28.41-.54.75-1.23,1.41-2.07,1.94-.01,0-.01.01-.02.01-3.18,2.01-5.08,5.46-5.08,9.23,0,6.02,4.9,10.92,10.93,10.92.26,0,.52-.01.78-.03,4.12-.35,7.76,2.7,8.11,6.83Z"/>
  </g>
</svg>