<?xml version="1.0" encoding="UTF-8"?>
<svg id="_圖層_2" xmlns="http://www.w3.org/2000/svg" version="1.1" viewBox="0 0 58.6 68.54">
  <!-- Generator: Adobe Illustrator 29.6.1, SVG Export Plug-In . SVG Version: 2.1.1 Build 9)  -->
  <defs>
    <style>
      .st0 {
        fill: #d3d3d3;
      }
    </style>
  </defs>
  <g id="_標準字">
    <path class="st0" d="M57.77,64.21l-.11-.11c-5.54-5.21-5.29-12.29-5.24-13.36V5.32c0-.21-.04-.64-.04-.64-.34-2.17-2.26-4.26-4.63-4.61-1.96-.29-3.75.3-4.98,1.42-.42.39-.77.82-1.04,1.31,0,.02-.04.06-.05.08-.36.66-.56,1.42-.56,2.23l.04,23.15c.02,7.13-5.76,12.92-12.89,12.92h-7.59c-1.79,0-3.25-1.47-3.25-3.27l.06-32.8c0-.81-.21-1.57-.57-2.23,0-.02-.66-1-1.08-1.39C14.61.37,12.81-.22,10.86.07c-2.38.35-4.29,2.44-4.63,4.61,0,0-.05.43-.05.64v45.42c.05,1.07.3,8.15-5.23,13.36-.04.03-.08.07-.12.11-1.68,1.55-.64,4.33,1.64,4.33h53.66c2.29,0,3.32-2.78,1.64-4.33ZM37.35,43.83c2.25,0,4.07,1.82,4.07,4.07s-1.82,4.07-4.07,4.07-4.07-1.82-4.07-4.07,1.83-4.07,4.07-4.07ZM17.01,49.94c0-3.38,2.73-6.11,6.1-6.11s6.11,2.73,6.11,6.11-2.74,6.1-6.11,6.1-6.1-2.73-6.1-6.1ZM34.37,63.13c-.15,0-.29,0-.43-.04-2.84,2.6-7.22,2.85-10.36.42-1.13-.88-1.12-2.69.29-3.52.73-.43,1.65-.28,2.32.23,1.65,1.25,4,.96,5.31-.63.59-.73,1.55-1.12,2.43-.78.11.04.21.09.31.15.07,0,.15-.02.23-.02,2.04-.06,3.69-1.71,3.75-3.75.02-.94.54-1.83,1.45-2.11,1.44-.43,2.75.64,2.75,2.01,0,4.43-3.61,8.04-8.05,8.04Z"/>
  </g>
</svg>