<?xml version="1.0" encoding="UTF-8"?>
<svg id="_圖層_1" data-name="圖層 1" xmlns="http://www.w3.org/2000/svg" viewBox="0 0 74.22 217.32">
  <defs>
    <style>
      .cls-1 {
        fill: #444;
      }

      .cls-2 {
        fill: none;
        stroke: #444;
        stroke-miterlimit: 10;
        stroke-width: .5px;
      }
    </style>
  </defs>
  <path class="cls-1" d="M59.5,14.25c-1.1-.51-2.09-.82-2.83-.97-1.88-.39-7.39-.61-7.39-.61h-24.34s-5.51.22-7.39.61c-.74.15-1.73.46-2.83.97,1.27-3.82,7.92-3.75,7.92-3.75h28.94s6.65-.07,7.92,3.75Z"/>
  <path class="cls-2" d="M12.6,15.43c2.69-9.29,7.83-8.81,10.73-10.69C26.24,2.86,27.96.12,37.11.12s10.87,2.74,13.78,4.62c2.9,1.88,8.04,1.4,10.73,10.69"/>
  <path class="cls-2" d="M67.01,65.35c-.77,5.61,0,41.5,0,41.5,0,0,.86,12.53-5.75,14.34-.46.13-.91.25-1.36.37l-.1.02c-1.96.51-3.82.91-5.87,1.21-4.1.63-8.94.88-16.82.88s-12.72-.25-16.82-.88c-2.05-.3-3.91-.7-5.87-1.21l-.1-.02c-.45-.12-.9-.24-1.36-.37-6.61-1.81-5.75-14.34-5.75-14.34,0,0,.77-35.89,0-41.5-.78-5.62-3.53-11.51-4.19-15.03-.66-3.52-.99-17.39,0-21.14.99-3.74,3.69-7.81,6.39-10.95.98-1.15,2.09-2.07,3.19-2.8.03-.02.05-.03.07-.04l2.05-1.14c1.1-.51,2.09-.82,2.83-.97,1.88-.39,7.39-.61,7.39-.61h24.34s5.51.22,7.39.61c.74.15,1.73.46,2.83.97,1.7.79,3.67,2.07,5.31,3.98,2.7,3.14,5.4,7.21,6.39,10.95.99,3.75.66,17.62,0,21.14-.66,3.52-3.42,9.41-4.19,15.03Z"/>
  <path class="cls-2" d="M14.32,121.56s4.04,7.02,3.82,14.08"/>
  <path class="cls-2" d="M67.23,217.2H6.98c-9-5.36-7.34-25.84-5.03-35.58,2.31-9.75,11.78-28.27,14.26-37.52.78-2.92,1.41-5.82,1.93-8.43v-.02c1.12-5.66,1.74-10.01,2.3-10.54.13-.12.27-.21.42-.26.26-.11.58-.12.99-.07h.01c.82.09,2.03.43,4.03.77,3.58.61,11.22.8,11.22.8,0,0,7.64-.19,11.22-.8,2-.34,3.21-.68,4.03-.77h.01c.41-.05.73-.04.99.07.15.05.29.14.42.26.56.53,1.18,4.88,2.3,10.54v.02c.52,2.61,1.15,5.51,1.93,8.43,2.48,9.25,11.95,27.77,14.26,37.52,2.31,9.74,3.96,30.22-5.04,35.58Z"/>
  <path class="cls-2" d="M12.67,15.39c.7-.46,1.4-.84,2.05-1.14"/>
  <path class="cls-2" d="M53.84,122.82l.09-.02c2.05-.3,3.91-.7,5.87-1.21l.1-.02s-4.05,7.02-3.82,14.08c-1.12-5.66-1.74-10.01-2.3-10.54-.13-.12-.27-.21-.42-.26"/>
  <path class="cls-1" d="M53.93,122.79l-.09.02s-.11.94-.48,2.03c-.26-.11-.58-.12-.99-.07h-.01c-.82.09-2.03.43-4.03.77-3.58.61-11.22.8-11.22.8,0,0-7.64-.19-11.22-.8-2-.34-3.21-.68-4.03-.77h-.01c-.41-.05-.73-.04-.99.07-.37-1.09-.48-2.03-.48-2.03l-.09-.02c4.1.63,8.94.88,16.82.88s12.72-.25,16.82-.88Z"/>
  <rect class="cls-2" x="11.9" y="25.75" width="50.42" height="88.18" rx="3.2" ry="3.2"/>
  <rect class="cls-1" x="14.72" y="30.15" width="44.78" height="81.25" rx=".81" ry=".81"/>
</svg>