<svg width="204" height="593" viewBox="0 0 204 593" fill="none" xmlns="http://www.w3.org/2000/svg">
<path d="M101.75 261C141.75 261 162.5 276.5 166.5 297.5C170.5 318.5 152 335.5 152.5 360C153 384.5 209 482 202 527C195 572 182.5 592 160.5 592H101.75M101.855 261C61.8554 261 41.1054 276.5 37.1054 297.5C33.1054 318.5 51.6054 335.5 51.1054 360C50.6054 384.5 -5.39457 482 1.60543 527C8.60543 572 21.1054 592 43.1054 592H101.855" stroke="white" stroke-linecap="round" stroke-linejoin="round"/>
<path d="M101.317 137C148.72 137 163.662 141 171.391 151C179.12 161 183.757 191.5 176.028 211.5C168.299 231.5 173.967 254.5 169.845 264.5C166.548 272.5 160.914 278.167 158.51 280M145.113 269.5C145.457 266.833 143.465 260.7 132.747 257.5C122.03 254.3 107.329 253.5 101.317 253.5M101.683 137C54.28 137 39.3378 141 31.6091 151C23.8804 161 19.2432 191.5 26.9719 211.5C34.7006 231.5 29.0329 254.5 33.1549 264.5C36.4524 272.5 42.0858 278.167 44.4903 280M57.8867 269.5C57.5432 266.833 59.5355 260.7 70.2526 257.5C80.9697 254.3 95.6714 253.5 101.683 253.5" stroke="white" stroke-linecap="round" stroke-linejoin="round"/>
<path d="M102 0.5C154 0.5 166 39.5 173 61.5C180 83.5 183 126 177.5 132.5C172 139 165.5 134 148 132.5C134 131.3 111.5 130.667 102 130.5M102.345 0.5C50.3453 0.5 38.3453 39.5 31.3453 61.5C24.3453 83.5 21.3453 126 26.8453 132.5C32.3453 139 38.8453 134 56.3453 132.5C70.3453 131.3 92.8453 130.667 102.345 130.5" stroke="white"/>
<path d="M38.5 42.5C31.5 43.8333 15.4 54.3 7.00002 85.5C-3.49998 124.5 9.50002 175.5 23 183.5" stroke="white"/>
<path d="M165.774 42.3098C172.759 43.7198 188.743 54.3624 196.801 85.6527C206.872 124.765 193.314 175.62 179.727 183.471" stroke="white"/>
<path d="M26.5002 210.5V307.5C26.0002 313 28.5002 324.7 42.5002 327.5" stroke="white"/>
<path d="M177 208.5V305.5C177.5 311 175 322.7 161 325.5" stroke="white"/>
<path d="M24.4998 171C22.1664 161.167 18.8998 137.7 24.4998 122.5" stroke="white"/>
<path d="M178.5 171C180.667 163.333 184 143.1 180 123.5" stroke="white"/>
</svg>
