<?xml version="1.0" encoding="UTF-8"?>
<svg id="_圖層_2" data-name="圖層 2" xmlns="http://www.w3.org/2000/svg" viewBox="0 0 581.1 87.95">
  <defs>
    <style>
      .cls-1 {
        fill: white;
      }
    </style>
  </defs>
  <g id="_標準字" data-name="標準字">
    <path class="cls-1" d="M72.04,87.78h-.66c-5.36,0-9.94-3.7-11.27-8.9-2.24-8.73-7.69-16.17-15.02-20.98-6.92,2.82-14.48,4.37-22.41,4.37v14.17c0,6.26-5.08,11.34-11.34,11.34h0c-6.26,0-11.34-5.08-11.34-11.34V14.08C0,7.82,5.08,2.74,11.34,2.74h0c6.26,0,11.34,5.08,11.34,11.34v24.37c.95,0,1.89-.04,2.83-.11,6.98-.55,13.4-3.11,18.68-7.1,6.35-4.8,11.05-11.67,13.09-19.62,1.34-5.24,6.1-8.88,11.51-8.88h0c7.75,0,13.49,7.29,11.56,14.8-2.57,10.05-7.7,19.07-14.65,26.34,8.52,7.81,14.77,18.07,17.62,29.66,1.78,7.26-3.81,14.24-11.28,14.24Z"/>
    <path class="cls-1" d="M468.89,87.78h-.66c-5.36,0-9.94-3.7-11.27-8.9-2.24-8.73-7.69-16.17-15.02-20.98-6.92,2.82-14.48,4.37-22.41,4.37v14.17c0,6.26-5.08,11.34-11.34,11.34h0c-6.26,0-11.34-5.08-11.34-11.34V14.08c0-6.26,5.08-11.34,11.34-11.34h0c6.26,0,11.34,5.08,11.34,11.34v24.37c.95,0,1.89-.04,2.83-.11,6.98-.55,13.4-3.11,18.68-7.1,6.35-4.8,11.05-11.67,13.09-19.62,1.34-5.24,6.1-8.88,11.51-8.88h0c7.75,0,13.49,7.29,11.56,14.8-2.57,10.05-7.7,19.07-14.65,26.34,8.52,7.81,14.77,18.07,17.62,29.66,1.78,7.26-3.81,14.24-11.28,14.24Z"/>
    <path class="cls-1" d="M123.13,26.66c-.85.85-1.33,2.06-1.23,3.37.18,2.24,2.19,3.89,4.43,3.89h38.07c6.26,0,11.34,5.08,11.34,11.34h0c0,6.26-5.08,11.34-11.34,11.34h-38.27c-1.18,0-2.24.48-3.01,1.24-.85.85-1.33,2.06-1.23,3.37.18,2.24,2.19,3.89,4.43,3.89h46.58c6.26,0,11.34,5.08,11.34,11.34h0c0,6.26-5.08,11.34-11.34,11.34h-48.19c-13.13,0-23.95-9.92-25.35-22.68-.11-.93-.16-1.87-.16-2.83,0-6.54,2.45-12.5,6.49-17.01-4.04-4.52-6.49-10.47-6.49-17.01,0-.96.05-1.9.16-2.83.65-5.92,3.32-11.22,7.31-15.21,4.62-4.61,11-7.47,18.04-7.47h48.19c6.26,0,11.34,5.08,11.34,11.34h0c0,6.26-5.08,11.34-11.34,11.34h-46.77c-1.18,0-2.24.48-3.01,1.24Z"/>
    <path class="cls-1" d="M321.56,26.66c-.85.85-1.33,2.06-1.23,3.37.18,2.24,2.19,3.89,4.43,3.89h38.07c6.26,0,11.34,5.08,11.34,11.34h0c0,6.26-5.08,11.34-11.34,11.34h-38.27c-1.18,0-2.24.48-3.01,1.24-.85.85-1.33,2.06-1.23,3.37.18,2.24,2.19,3.89,4.43,3.89h46.58c6.26,0,11.34,5.08,11.34,11.34h0c0,6.26-5.08,11.34-11.34,11.34h-48.19c-13.13,0-23.95-9.92-25.35-22.68-.11-.93-.16-1.87-.16-2.83,0-6.54,2.45-12.5,6.49-17.01-4.04-4.52-6.49-10.47-6.49-17.01,0-.96.05-1.9.16-2.83.65-5.92,3.32-11.22,7.31-15.21,4.62-4.61,11-7.47,18.04-7.47h48.19c6.26,0,11.34,5.08,11.34,11.34h0c0,6.26-5.08,11.34-11.34,11.34h-46.77c-1.18,0-2.24.48-3.01,1.24Z"/>
    <path class="cls-1" d="M504.56,78.05c3.11,3.31,6.6,6.04,10.34,8.18,7.81,4.47,17.54-1.09,17.54-10.09v-.61c0-4.11-2.3-7.79-5.86-9.84-2.16-1.24-4.14-2.91-5.83-5-6.07-7.52-6.03-18.52.1-25.99,8.31-10.13,23.67-10.14,32.01-.05,6.16,7.45,6.24,18.44.2,25.98-1.69,2.11-3.68,3.79-5.85,5.04-3.58,2.07-5.9,5.78-5.9,9.92v.62c0,8.78,9.44,14.54,17.11,10.27,3.91-2.17,7.55-4.98,10.79-8.43,15.65-16.68,15.91-43,.57-59.96-17.65-19.5-48.15-19.49-65.78.02-15.33,16.96-15.06,43.27.58,59.94Z"/>
    <path class="cls-1" d="M276,22.08c.52,2.32,1.2,4.14,1.56,5.08.21.54.76,1.89,1.93,4.1,1.63,3.1,3.12,5.29,3.34,5.63,2.28,3.44,5.51,12.4,5.67,22.68.13,7.54.27,16.19-5.67,22.68-1.32,1.44-5.53,6.05-11.33,5.67-4.06-.27-6.82-2.82-7.67-3.67-2.88-2.93-4.34-6.97-4.34-11.08v-37.68c0-.17,0-.35-.04-.52.05,0,.1-.01.15-.02-.05,0-.1.01-.15.01-.28-1.8-1.87-3.53-3.84-3.82-1.62-.24-3.11.25-4.13,1.18-.35.32-.64.68-.86,1.08,0,.02-.03.05-.04.07-.3.55-.47,1.18-.47,1.85l.03,19.21c0,5.91-4.78,10.71-10.7,10.71h-6.29c-1.5,0-2.71-1.21-2.7-2.71l.05-27.21c0-.67-.17-1.3-.47-1.85,0-.02-.03-.05-.04-.07-.22-.4-.51-.76-.86-1.08-1.02-.93-2.51-1.42-4.13-1.18-1.97.29-3.56,2.02-3.84,3.82-.05,0-.1-.01-.15-.01.05.01.1.02.15.02-.03.17-.04.35-.04.52v37.68c0,4.11-1.46,8.15-4.34,11.08-.85.85-3.61,3.4-7.67,3.67-5.8.38-10.01-4.23-11.33-5.67-5.94-6.49-5.8-15.14-5.67-22.68.16-10.28,3.39-19.24,5.67-22.68.22-.34,1.71-2.53,3.34-5.63,1.17-2.21,1.72-3.56,1.93-4.1,1.86-4.77,1.9-7.31,2.25-9.62v-.09c.05-9.63,7.86-17.41,17.5-17.41,9.14,0,16.65,7.01,17.43,15.96.05.51.07,1.02.07,1.54,0-.52.02-1.03.07-1.54.63-7.18,5.58-13.11,12.24-15.18,1.17-.36,5.92-1.77,11.15.2,9.59,3.62,11.45,15.06,11.54,16.4"/>
  </g>
</svg>